<?xml version="1.0" encoding="UTF-8" standalone="no"?>
<!-- Created with Inkscape (http://www.inkscape.org/) -->

<svg
   width="9.3400002mm"
   height="8.3299999mm"
   viewBox="0 0 9.3400002 8.3299999"
   version="1.1"
   id="svg1"
   xmlns="http://www.w3.org/2000/svg"
   xmlns:svg="http://www.w3.org/2000/svg">
  <defs
     id="defs1" />
  <g
     id="layer1"
     transform="translate(-6.55,-258.79)">
    <path
       id="SVmitGewichtsbelastung"
       style="opacity:1;fill-rule:evenodd;stroke:#000000;stroke-width:0.3;stroke-linecap:round;stroke-linejoin:round;stroke-miterlimit:0.2;stroke-dasharray:none"
       d="m 11.69,264.87 a 1,1 0 0 1 -1,1 1,1 0 0 1 -1,-1 1,1 0 0 1 1,-1 1,1 0 0 1 1,1 z m 4.05,-4.93 a 1,1 0 0 1 -1,1 1,1 0 0 1 -1,-1 1,1 0 0 1 1,-1 1,1 0 0 1 1,1 z m -2,0 h -3.05 m 0,3.98 v -3.98 m 0.93,5.42 3.13,1.61 m 0,-4.07 -3.13,1.61 m -1.78,0.85 -3.13,1.61 m 0,-4.07 3.13,1.61 m 4.91,-1.61 v 4.07 m -8.05,0 v -4.07" />
  </g>
</svg>
