<?xml version="1.0" encoding="UTF-8" standalone="no"?>
<!-- Created with Inkscape (http://www.inkscape.org/) -->

<svg
   width="10.75645mm"
   height="6.7617202mm"
   viewBox="0 0 10.75645 6.7617202"
   version="1.1"
   id="svg1"
   xmlns="http://www.w3.org/2000/svg"
   xmlns:svg="http://www.w3.org/2000/svg">
  <defs
     id="defs1" />
  <g
     id="layer1"
     transform="translate(-290.16481,-195.98587)">
    <g
       id="Tacosetter">
      <path
         id="path4870"
         style="fill:none;fill-opacity:1;fill-rule:evenodd;stroke:#000000;stroke-width:0.3;stroke-linecap:round;stroke-linejoin:round;stroke-miterlimit:0.2;stroke-dasharray:none;stroke-opacity:1"
         d="m 297.83313,200.64162 c 0,0.56404 -0.45719,1.02128 -1.02116,1.02128 -0.56397,0 -1.02116,-0.45724 -1.02116,-1.02128 0,-0.56404 0.45719,-1.02128 1.02116,-1.02128 0.56397,0 1.02116,0.45724 1.02116,1.02128 z m -2.8428,0 c 0,0.56404 -0.45719,1.02128 -1.02116,1.02128 -0.56397,0 -1.02116,-0.45724 -1.02116,-1.02128 0,-0.56404 0.45719,-1.02128 1.02116,-1.02128 0.56397,0 1.02116,0.45724 1.02116,1.02128 z m -2.20991,-5.5e-4 -2.46561,-0.84886 m 2.46561,0.84886 -2.46561,0.76605 m 0,0 v -1.61491 m 3.99544,-3.23195 h 1.44498 m -1.44498,2.80756 v -2.80756 m 4.93117,0 h -1.4471 m 1.4471,2.80756 v -2.80756 m -3.48619,0.50929 2.03909,-0.93368 m 0,0.93368 h -2.03909 m 2.03909,-0.93368 v 0.93368 m -2.03909,-0.93368 h 2.03909 m -2.03909,0.93368 v -0.93368 m 1.95633,4.93172 3.0597,1.53 m 0,-3.99589 -3.0597,1.53005 m 3.0597,2.46584 v -3.99589 m -4.93117,2.46589 -3.05967,1.53 m 0,-3.99589 3.05967,1.53005 m -3.05967,2.46584 v -3.99589" />
      <path
         style="fill:#000000;fill-opacity:1;fill-rule:evenodd;stroke:none;stroke-width:0;stroke-linecap:square;stroke-linejoin:round;stroke-miterlimit:0.2;stroke-dasharray:none;stroke-opacity:1"
         d="m 290.3148,199.79221 2.46563,0.84886 -2.46563,0.76605 v -1.61491"
         id="path11" />
    </g>
  </g>
</svg>
