<?xml version="1.0" encoding="UTF-8" standalone="no"?>
<!-- Created with Inkscape (http://www.inkscape.org/) -->

<svg
   width="8.3500004mm"
   height="8.2600002mm"
   viewBox="0 0 8.3500004 8.2600002"
   version="1.1"
   id="svg1"
   xmlns="http://www.w3.org/2000/svg"
   xmlns:svg="http://www.w3.org/2000/svg">
  <defs
     id="defs1" />
  <g
     id="layer1"
     transform="translate(-6.56,-132.73)">
    <path
       id="Vierwegventil"
       style="opacity:1;fill-rule:evenodd;stroke:#000000;stroke-width:0.3;stroke-linecap:round;stroke-linejoin:round;stroke-miterlimit:0.2;stroke-dasharray:none"
       d="m 11.73,136.9 a 1,1 0 0 1 -1,1 1,1 0 0 1 -1,-1 1,1 0 0 1 1,-1 1,1 0 0 1 1,1 z m -0.62,-0.97 1.52,-3.05 m -3.98,0 1.52,3.05 m 0.93,1.78 1.52,3.13 m -3.98,0 1.52,-3.13 m -1.52,-4.83 h 3.98 m 0,7.96 H 8.66 m 2.97,-3.47 3.13,1.53 m 0,-3.98 -3.13,1.53 m -1.78,0.93 -3.13,1.53 m 0,-3.98 3.13,1.53 m 4.91,-1.53 v 3.98 m -8.05,0 v -3.98" />
  </g>
</svg>
