<?xml version="1.0" encoding="UTF-8" standalone="no"?>
<!-- Created with Inkscape (http://www.inkscape.org/) -->

<svg
   width="8.2600002mm"
   height="4.3699999mm"
   viewBox="0 0 8.2600002 4.3699999"
   version="1.1"
   id="svg1"
   xmlns="http://www.w3.org/2000/svg"
   xmlns:svg="http://www.w3.org/2000/svg">
  <defs
     id="defs1" />
  <g
     id="layer1"
     transform="translate(-172.66,-230.73)">
    <path
       id="W__rmemessung"
       style="opacity:1;fill:#000000;fill-opacity:1;fill-rule:evenodd;stroke:#000000;stroke-width:0.3;stroke-linecap:round;stroke-linejoin:round;stroke-miterlimit:0.2;stroke-dasharray:none;stroke-opacity:1"
       d="m 172.95,231.02 c -0.05,0.53 -0.01,1.07 -0.02,1.61 0.01,0.68 -0.02,1.37 0.01,2.05 0.16,0.11 0.37,-0.14 0.54,-0.19 2.17,-1.12 4.36,-2.21 6.53,-3.35 0.12,-0.24 -0.3,-0.12 -0.43,-0.15 -2.19,0 -4.38,0 -6.56,0 l -0.03,0.01 z m -0.14,3.93 7.96,-4.07 m -7.96,0 v 4.07 m 7.96,-4.07 h -7.96 m 0,4.07 7.96,-4.07 m 0,4.07 h -7.96 m 7.96,-4.07 v 4.07 m -7.96,-4.07 h 7.96 m -7.96,4.07 v -4.07" />
  </g>
</svg>
