<?xml version="1.0" encoding="UTF-8" standalone="no"?>
<!-- Created with Inkscape (http://www.inkscape.org/) -->

<svg
   width="10.76mm"
   height="4.3000002mm"
   viewBox="0 0 10.76 4.3000002"
   version="1.1"
   id="svg1"
   xmlns="http://www.w3.org/2000/svg"
   xmlns:svg="http://www.w3.org/2000/svg">
  <defs
     id="defs1" />
  <g
     id="layer1"
     transform="translate(-289.7,-166.06)">
    <path
       id="Drosselventil"
       style="opacity:1;fill:none;fill-rule:evenodd;stroke:#000000;stroke-width:0.3;stroke-linecap:round;stroke-linejoin:round;stroke-miterlimit:0.2;stroke-dasharray:none"
       d="m 294.49,168.26 c 0,0.54 -0.44,0.98 -0.98,0.98 -0.54,0 -0.98,-0.44 -0.98,-0.98 0,-0.54 0.44,-0.98 0.98,-0.98 0.54,0 0.98,0.44 0.98,0.98 z m -2.17,0 -2.47,-0.85 m 0,1.61 2.47,-0.77 m 0,0 -2.47,-0.85 m 2.47,0.85 -2.47,0.77 m 10.46,-2.81 -7.99,4 m 0,-4 7.99,4 m 0,-4 v 4 m -7.99,0 v -4" />
  </g>
</svg>
