<?xml version="1.0" encoding="UTF-8" standalone="no"?>
<!-- Created with Inkscape (http://www.inkscape.org/) -->

<svg
   width="7.3000002mm"
   height="10.28mm"
   viewBox="0 0 7.3000002 10.28"
   version="1.1"
   id="svg1"
   xmlns="http://www.w3.org/2000/svg"
   xmlns:svg="http://www.w3.org/2000/svg">
  <defs
     id="defs1" />
  <g
     id="layer1"
     transform="translate(-8.59,-274.81)">
    <path
       id="EckSVmitGewichtsbelastung"
       style="opacity:1;fill-rule:evenodd;stroke:#000000;stroke-width:0.3;stroke-linecap:round;stroke-linejoin:round;stroke-miterlimit:0.2;stroke-dasharray:none"
       d="m 11.69,280.94 a 1,1 0 0 1 -1,1 1,1 0 0 1 -1,-1 1,1 0 0 1 1,-1 1,1 0 0 1 1,1 z m 4.05,-4.98 a 1,1 0 0 1 -1,1 1,1 0 0 1 -1,-1 1,1 0 0 1 1,-1 1,1 0 0 1 1,1 z m -2,0 h -3.05 m 0,3.98 v -3.98 m 0.93,5.42 3.13,1.61 m 0,-4.07 -3.13,1.61 m -0.42,1.27 1.52,3.14 m -3.98,0 1.52,-3.14 m 4.49,-2.88 v 4.07 m -2.03,1.95 H 8.74" />
  </g>
</svg>
