<?xml version="1.0" encoding="UTF-8" standalone="no"?>
<!-- Created with Inkscape (http://www.inkscape.org/) -->

<svg
   width="4.3600001mm"
   height="8.3500004mm"
   viewBox="0 0 4.3600001 8.3500004"
   version="1.1"
   id="svg1"
   xmlns="http://www.w3.org/2000/svg"
   xmlns:svg="http://www.w3.org/2000/svg">
  <defs
     id="defs1" />
  <g
     id="layer1"
     transform="translate(-174.61,-68.68)">
    <path
       id="Motorantrieb"
       style="color:#000000;fill:#000000;fill-rule:evenodd;stroke-width:0.3;stroke-linecap:square;stroke-linejoin:round;stroke-miterlimit:0.2;stroke-dasharray:none"
       d="m 174.61,68.68 v 0.15 0.15 3.68 0.15 0.15 h 0.15 0.15 1.73 v 3.92 0.15 h 0.3 v -0.15 -3.92 h 1.73 0.15 0.15 v -0.3 -3.68 -0.15 -0.15 h -0.15 -0.15 -1.93 -1.83 -0.15 z m 0.3,0.3 h 1.1 c -0.52,0.21 -0.87,0.54 -1.1,1.04 z m 1.83,0 c 1.03,0 1.86,0.82 1.86,1.83 0,1.01 -0.83,1.83 -1.86,1.83 -1,0 -1.78,-0.78 -1.83,-1.75 v -0.16 c 0.05,-0.97 0.83,-1.75 1.83,-1.75 z m 0.73,0 h 1.2 v 1.29 c -0.19,-0.62 -0.6,-1.05 -1.2,-1.29 z m 1.2,2.38 v 1.31 h -1.24 c 0.63,-0.23 1.05,-0.67 1.24,-1.31 z m -3.77,0.25 c 0.23,0.52 0.6,0.86 1.14,1.06 h -1.14 z m 2.64,0.16 c 0.01,0.01 0.01,0.02 0.01,0.02 0,0.01 -0.01,0.02 -0.03,0.02 -0.01,0 -0.03,0 -0.04,0 -0.05,0 -0.09,-0.01 -0.1,-0.01 -0.03,0 -0.05,0 -0.07,0 -0.02,0 -0.04,0 -0.06,0.01 -0.02,0 -0.02,-0.01 -0.02,-0.02 0,-0.01 0,-0.01 0.01,-0.02 0.02,-0.02 0.03,-0.04 0.04,-0.05 0.02,-0.02 0.03,-0.04 0.02,-0.05 l -0.17,-1.59 -0.36,0.51 c 0.04,0.05 0.08,0.12 0.1,0.18 0.03,0.08 0.05,0.15 0.05,0.22 0,0.09 -0.02,0.17 -0.06,0.24 -0.04,0.07 -0.1,0.11 -0.16,0.11 -0.06,0 -0.12,-0.04 -0.16,-0.11 -0.04,-0.07 -0.06,-0.14 -0.06,-0.23 0,-0.06 0.01,-0.13 0.04,-0.2 0.02,-0.05 0.05,-0.1 0.08,-0.14 -0.09,-0.12 -0.16,-0.23 -0.21,-0.32 -0.05,-0.09 -0.08,-0.16 -0.1,-0.2 l -0.16,1.52 c 0,0.02 0.01,0.04 0.03,0.05 0.02,0.02 0.03,0.03 0.05,0.05 0.01,0.01 0.01,0.01 0.01,0.02 0,0.01 -0.01,0.02 -0.02,0.02 -0.01,0 -0.03,0 -0.06,0 -0.03,0 -0.06,-0.01 -0.07,-0.01 -0.03,0 -0.06,0 -0.08,0 -0.02,0 -0.04,0 -0.07,0.01 -0.02,0 -0.02,-0.01 -0.02,-0.02 0,-0.01 0.01,-0.02 0.01,-0.03 0.01,-0.01 0.03,-0.03 0.04,-0.04 0.02,-0.02 0.03,-0.04 0.03,-0.05 l 0.19,-1.69 c 0,-0.02 -0.01,-0.04 -0.03,-0.06 -0.02,-0.02 -0.03,-0.03 -0.05,-0.05 -0.01,-0.01 -0.01,-0.01 -0.01,-0.02 0,-0.01 0.01,-0.02 0.02,-0.02 0.01,0 0.02,0 0.06,0 0.03,0 0.06,0 0.09,0 0.03,0 0.06,0 0.07,0 0.02,0 0.04,0 0.07,-0.01 0.02,0 0.03,0.01 0.03,0.02 0,0.01 0,0.01 -0.01,0.02 -0.02,0.02 -0.03,0.03 -0.04,0.04 -0.02,0.02 -0.03,0.04 -0.03,0.06 0,0 0,0.01 0,0.01 0.01,0.04 0.05,0.1 0.11,0.2 0.05,0.07 0.11,0.15 0.17,0.23 0.06,0.07 0.09,0.11 0.09,0.11 l 0.37,-0.51 c 0.01,-0.02 0.02,-0.03 0.02,-0.04 0,-0.01 0,-0.02 -0.01,-0.03 0,-0.01 -0.01,-0.01 -0.02,-0.02 -0.01,-0.01 -0.02,-0.02 -0.03,-0.03 -0.01,-0.01 -0.01,-0.01 -0.01,-0.02 0,-0.01 0.01,-0.01 0.02,-0.01 0.01,0 0.03,0 0.04,0 0.05,0 0.09,0.01 0.1,0.01 0.02,0 0.05,0 0.08,0 0.03,0 0.05,0 0.05,0 0.02,0 0.03,0.01 0.03,0.02 0,0.01 0,0.01 -0.01,0.02 -0.02,0.01 -0.03,0.02 -0.04,0.03 -0.03,0.03 -0.04,0.05 -0.04,0.07 l 0.18,1.69 c 0,0.02 0.01,0.03 0.03,0.05 0.02,0.02 0.03,0.03 0.05,0.04 z m -0.74,-0.75 c 0,-0.05 -0.02,-0.1 -0.05,-0.16 -0.02,-0.04 -0.05,-0.08 -0.09,-0.11 -0.03,0.03 -0.05,0.07 -0.07,0.1 -0.02,0.05 -0.03,0.1 -0.03,0.15 0,0.06 0.01,0.11 0.03,0.16 0.02,0.05 0.06,0.08 0.1,0.08 0.04,0 0.07,-0.02 0.09,-0.07 0.02,-0.04 0.03,-0.09 0.03,-0.14 z" />
  </g>
</svg>
