<?xml version="1.0" encoding="UTF-8" standalone="no"?>
<!-- Created with Inkscape (http://www.inkscape.org/) -->

<svg
   width="9.4499998mm"
   height="6.75mm"
   viewBox="0 0 9.4499998 6.75"
   version="1.1"
   id="svg1"
   xmlns="http://www.w3.org/2000/svg"
   xmlns:svg="http://www.w3.org/2000/svg">
  <defs
     id="defs1" />
  <g
     id="layer1"
     transform="translate(-172.07,-149.49)">
    <path
       id="Schwingungsd__mpfer"
       style="opacity:1;fill:none;stroke:#000000;stroke-width:0.3;stroke-linecap:round;stroke-linejoin:round;stroke-miterlimit:10;stroke-dasharray:none;stroke-opacity:1"
       d="m 178.83,155.58 0.59,-0.42 m -1.61,0.76 1.02,-0.34 m -2.03,0.51 1.02,-0.17 m -2.03,0 1.02,0.17 m -2.03,-0.51 1.01,0.34 m -1.52,-0.76 0.51,0.42 m 0,-5.34 -0.51,0.42 m 1.52,-0.85 -1.01,0.42 m 2.03,-0.59 -1.02,0.17 m 2.03,0 -1.02,-0.17 m 2.03,0.59 -1.02,-0.42 m 1.61,0.85 -0.59,-0.42 m 0.59,2.63 h 1.95 m -2.46,1.95 0.51,-1.95 m -0.51,1.95 -1.1,-3.9 m -1.02,3.9 1.02,-3.9 m -1.02,3.9 -1.02,-3.9 m -1.01,3.9 1.01,-3.9 m -1.52,1.95 0.51,1.95 m -2.54,-1.95 h 2.03" />
  </g>
</svg>
