<?xml version="1.0" encoding="UTF-8" standalone="no"?>
<!-- Created with Inkscape (http://www.inkscape.org/) -->

<svg
   width="420mm"
   height="297mm"
   viewBox="0 0 420 297"
   version="1.1"
   id="svg1"
   inkscape:version="1.4 (86a8ad7, 2024-10-11)"
   sodipodi:docname="SIA_ICONS_normal.svg"
   inkscape:export-batch-path="astro_starter\wandering-wasp\src\icons"
   inkscape:export-batch-name=""
   xmlns:inkscape="http://www.inkscape.org/namespaces/inkscape"
   xmlns:sodipodi="http://sodipodi.sourceforge.net/DTD/sodipodi-0.dtd"
   xmlns:xlink="http://www.w3.org/1999/xlink"
   xmlns="http://www.w3.org/2000/svg"
   xmlns:svg="http://www.w3.org/2000/svg">
  <sodipodi:namedview
     id="namedview1"
     pagecolor="#505050"
     bordercolor="#eeeeee"
     borderopacity="1"
     inkscape:showpageshadow="0"
     inkscape:pageopacity="0"
     inkscape:pagecheckerboard="0"
     inkscape:deskcolor="#505050"
     inkscape:document-units="mm"
     inkscape:zoom="0.43200141"
     inkscape:cx="600.69248"
     inkscape:cy="598.37768"
     inkscape:window-width="2560"
     inkscape:window-height="1377"
     inkscape:window-x="-8"
     inkscape:window-y="560"
     inkscape:window-maximized="1"
     inkscape:current-layer="layer1">
    <inkscape:page
       x="0"
       y="0"
       width="420"
       height="297"
       id="page25"
       margin="0"
       bleed="0" />
  </sodipodi:namedview>
  <defs
     id="defs1">
    <symbol
       id="symbol1">
      <path
         id="EckSVmitGewichtsbelastung"
         style="opacity:1;fill-rule:evenodd;stroke:#000000;stroke-width:0.3;stroke-linecap:round;stroke-linejoin:round;stroke-miterlimit:0.2;stroke-dasharray:none"
         d="m 11.69,280.94 a 1,1 0 0 1 -1,1 1,1 0 0 1 -1,-1 1,1 0 0 1 1,-1 1,1 0 0 1 1,1 z m 4.05,-4.98 a 1,1 0 0 1 -1,1 1,1 0 0 1 -1,-1 1,1 0 0 1 1,-1 1,1 0 0 1 1,1 z m -2,0 h -3.05 m 0,3.98 v -3.98 m 0.93,5.42 3.13,1.61 m 0,-4.07 -3.13,1.61 m -0.42,1.27 1.52,3.14 m -3.98,0 1.52,-3.14 m 4.49,-2.88 v 4.07 m -2.03,1.95 H 8.74"
         inkscape:label="EckSVmitGewichtsbelastung" />
    </symbol>
    <symbol
       id="symbol2">
      <path
         id="SVmitGewichtsbelastung"
         style="opacity:1;fill-rule:evenodd;stroke:#000000;stroke-width:0.3;stroke-linecap:round;stroke-linejoin:round;stroke-miterlimit:0.2;stroke-dasharray:none"
         d="m 11.69,264.87 a 1,1 0 0 1 -1,1 1,1 0 0 1 -1,-1 1,1 0 0 1 1,-1 1,1 0 0 1 1,1 z m 4.05,-4.93 a 1,1 0 0 1 -1,1 1,1 0 0 1 -1,-1 1,1 0 0 1 1,-1 1,1 0 0 1 1,1 z m -2,0 h -3.05 m 0,3.98 v -3.98 m 0.93,5.42 3.13,1.61 m 0,-4.07 -3.13,1.61 m -1.78,0.85 -3.13,1.61 m 0,-4.07 3.13,1.61 m 4.91,-1.61 v 4.07 m -8.05,0 v -4.07"
         inkscape:label="SVmitGewichtsbelastung" />
    </symbol>
    <symbol
       id="symbol3">
      <path
         id="SVmitFederbelastung"
         style="opacity:1;fill-rule:evenodd;stroke:#000000;stroke-width:0.3;stroke-linecap:round;stroke-linejoin:round;stroke-miterlimit:0.2;stroke-dasharray:none"
         d="m 11.69,248.95 a 1,1 0 0 1 -1,1 1,1 0 0 1 -1,-1 1,1 0 0 1 1,-1 1,1 0 0 1 1,1 z m -1,-1.03 v -1.19 m 0,-1.36 v -2.03 m 0,2.03 2.03,0.51 m -3.98,0.34 3.98,-0.34 m -3.98,0.34 1.95,0.51 m 0,-1.36 v -2.03 m 0,2.03 2.03,0.51 m -3.98,0.34 3.98,-0.34 m -3.98,0.34 1.95,0.51 m 0,2.2 v -1.19 m 0.93,1.61 3.13,1.61 m 0,-4.07 -3.13,1.61 m -0.42,1.36 1.52,3.05 m -3.98,0 1.52,-3.05 m 4.49,-2.96 v 4.07 m -2.03,1.95 H 8.74"
         inkscape:label="SVmitFederbelastung" />
    </symbol>
    <symbol
       id="symbol4">
      <path
         id="SicherheitsventilmitFederbelastung"
         style="opacity:1;fill-rule:evenodd;stroke:#000000;stroke-width:0.3;stroke-linecap:round;stroke-linejoin:round;stroke-miterlimit:0.2;stroke-dasharray:none"
         d="m 11.71,232.92 a 1.02,1.02 0 0 1 -1.02,1.02 1.02,1.02 0 0 1 -1.02,-1.02 1.02,1.02 0 0 1 1.02,-1.02 1.02,1.02 0 0 1 1.02,1.02 z m -1.02,-1.02 v -1.19 m 0,-1.36 v -2.03 m 0,2.03 2.03,0.51 m -3.98,0.34 3.98,-0.34 m -3.98,0.34 1.95,0.51 m 0,-1.36 v -2.03 m 0,2.03 2.03,0.51 m -3.98,0.34 3.98,-0.34 m -3.98,0.34 1.95,0.51 m 0,2.2 v -1.19 m 0.93,1.61 3.13,1.61 m 0,-4.07 -3.13,1.61 m -1.78,0.85 -3.13,1.61 m 0,-4.07 3.13,1.61 m 4.91,-1.61 v 4.07 m -8.05,0 v -4.07"
         inkscape:label="SVmitFederbelastung" />
    </symbol>
    <symbol
       id="symbol5">
      <path
         id="Drosselklappe"
         style="opacity:1;fill-rule:evenodd;stroke:#000000;stroke-width:0.3;stroke-linecap:round;stroke-linejoin:round;stroke-miterlimit:0.2;stroke-dasharray:none"
         d="m 11.71,217 a 0.97,1.02 0 0 1 -0.97,1.02 0.97,1.02 0 0 1 -0.97,-1.02 0.97,1.02 0 0 1 0.97,-1.02 0.97,1.02 0 0 1 0.97,1.02 z m -3.45,-1.23 1.61,0.76 m 1.77,0.83 1.52,0.85 m 1.59,0.74 H 6.71 m 8.05,-4.07 v 4.07 m -8.05,-4.07 h 8.05 m -8.05,4.07 v -4.07"
         inkscape:label="Drosselklappe" />
    </symbol>
    <symbol
       id="symbol6">
      <path
         id="R__ckschlagklappe"
         style="opacity:1;fill-rule:evenodd;stroke:#000000;stroke-width:0.3;stroke-linecap:round;stroke-linejoin:round;stroke-miterlimit:0.2;stroke-dasharray:none"
         d="m 14.76,201.92 a 1.02,1.02 0 0 1 -1.02,1.02 1.02,1.02 0 0 1 -1.02,-1.02 1.02,1.02 0 0 1 1.02,-1.02 1.02,1.02 0 0 1 1.02,1.02 z m -8.05,-3.05 6.1,2.62 m 1.95,1.44 H 6.71 m 8.05,-4.07 v 4.07 m -8.05,-4.07 h 8.05 m -8.05,4.07 v -4.07"
         inkscape:label="Rückschlagklappe" />
    </symbol>
    <symbol
       id="symbol7">
      <path
         id="Absperrklappe"
         style="opacity:1;fill-rule:evenodd;stroke:#000000;stroke-width:0.3;stroke-linecap:round;stroke-linejoin:round;stroke-miterlimit:0.2;stroke-dasharray:none"
         d="m 11.76,184.89 a 1,1 0 0 1 -1,1 1,1 0 0 1 -1,-1 1,1 0 0 1 1,-1 1,1 0 0 1 1,1 z m -0.14,0.42 3.13,1.61 m -8.05,-3.98 3.13,1.53 m 4.91,2.45 H 6.71 m 8.05,-3.98 v 3.98 m -8.05,-3.98 h 5.95 2.1 m -8.05,3.98 v -3.98"
         inkscape:label="Absperrklappe" />
    </symbol>
    <symbol
       id="symbol8">
      <path
         id="Druckreduzierventil"
         style="opacity:1;fill:#000000;fill-opacity:1;fill-rule:evenodd;stroke:#000000;stroke-width:0.3;stroke-linecap:round;stroke-linejoin:round;stroke-miterlimit:0.2;stroke-dasharray:none;stroke-opacity:1"
         d="m 6.71,170.91 4.02,-1.99 -4.02,-1.99 z m 0,0 8.05,-3.98 m -8.05,0 8.05,3.98 m 0,0 H 6.71 m 8.05,-3.98 v 3.98 m -8.05,-3.98 h 8.05 m -8.05,3.98 v -3.98"
         inkscape:label="Druckreduzierventil" />
    </symbol>
    <symbol
       id="symbol9">
      <path
         id="R__ckflussverhinderer"
         style="opacity:1;fill:#000000;fill-opacity:1;stroke:#000000;stroke-width:0.3;stroke-linecap:round;stroke-linejoin:round;stroke-miterlimit:10;stroke-dasharray:none;stroke-opacity:1"
         d="m 12.302637,148.12455 v 1.52395 l 2.4505,-0.76224 z m -5.5924195,0.76224 h 5.5903495 z m 8.0475495,2.03224 -8.0474995,3.98375 m 0,-3.98375 8.0474995,3.98375 m 0,-3.98375 v 3.98375 m -8.0474995,0 v -3.98375"
         inkscape:label="Rückflussverhinderer" />
    </symbol>
    <symbol
       id="symbol10">
      <path
         id="Vierwegventil"
         style="opacity:1;fill-rule:evenodd;stroke:#000000;stroke-width:0.3;stroke-linecap:round;stroke-linejoin:round;stroke-miterlimit:0.2;stroke-dasharray:none"
         d="m 11.73,136.9 a 1,1 0 0 1 -1,1 1,1 0 0 1 -1,-1 1,1 0 0 1 1,-1 1,1 0 0 1 1,1 z m -0.62,-0.97 1.52,-3.05 m -3.98,0 1.52,3.05 m 0.93,1.78 1.52,3.13 m -3.98,0 1.52,-3.13 m -1.52,-4.83 h 3.98 m 0,7.96 H 8.66 m 2.97,-3.47 3.13,1.53 m 0,-3.98 -3.13,1.53 m -1.78,0.93 -3.13,1.53 m 0,-3.98 3.13,1.53 m 4.91,-1.53 v 3.98 m -8.05,0 v -3.98"
         inkscape:label="Vierwegventil" />
    </symbol>
    <symbol
       id="symbol11">
      <path
         id="Dreiwegventil"
         style="opacity:1;fill-rule:evenodd;stroke:#000000;stroke-width:0.3;stroke-linecap:round;stroke-linejoin:round;stroke-miterlimit:0.2;stroke-dasharray:none"
         d="m 11.734578,120.88878 a 1.0004436,1.0005612 0 0 1 -1.000443,1.00057 1.0004436,1.0005612 0 0 1 -1.0004436,-1.00057 1.0004436,1.0005612 0 0 1 1.0004436,-1.00056 1.0004436,1.0005612 0 0 1 1.000443,1.00056 z m -0.534681,-0.8902 1.52459,-3.13367 m -3.9807295,0 1.5246005,3.13367 m 0.931539,1.78043 1.52459,3.13367 m -3.9807295,0 1.5246005,-3.13367 m -1.5246005,-4.9141 h 3.9807295 m 0,8.04777 H 8.7437575 m 2.8798395,-3.55872 3.13417,1.52458 m 0,-3.97949 -3.13417,1.52453 m 3.13417,-1.52453 v 3.97949"
         inkscape:label="Dreiwegventil" />
    </symbol>
    <symbol
       id="symbol12">
      <path
         id="Ventil"
         style="opacity:1;fill-rule:evenodd;stroke:#000000;stroke-width:0.3;stroke-linecap:round;stroke-linejoin:round;stroke-miterlimit:0.2;stroke-dasharray:none"
         d="m 11.73,104.8 a 1,1 0 0 1 -1,1 1,1 0 0 1 -1,-1 1,1 0 0 1 1,-1 1,1 0 0 1 1,1 z m -0.11,0.54 3.13,1.53 m 0,-3.98 -3.13,1.52 m -1.78,0.93 -3.13,1.53 m 0,-3.98 3.13,1.52 m 4.91,-1.52 v 3.98 m -8.05,0 v -3.98"
         inkscape:label="Ventil" />
    </symbol>
    <symbol
       id="symbol13">
      <path
         id="Schieber"
         style="opacity:1;fill:none;stroke:#000000;stroke-width:0.3;stroke-linecap:round;stroke-linejoin:round;stroke-miterlimit:10;stroke-dasharray:none;stroke-opacity:1"
         d="m 10.69,90.86 v -3.98 m 4.07,0 -8.05,3.98 m 0,-3.98 8.05,3.98 m 0,-3.98 v 3.98 m -8.05,0 v -3.98"
         inkscape:label="Schieber" />
    </symbol>
    <symbol
       id="symbol14">
      <path
         id="Kugelhahn"
         style="opacity:1;fill-rule:evenodd;stroke:#000000;stroke-width:0.3;stroke-linecap:round;stroke-linejoin:round;stroke-miterlimit:0.2"
         d="m 11.73,72.86 a 1,1 0 0 1 -1,1 1,1 0 0 1 -1,-1 1,1 0 0 1 1,-1 1,1 0 0 1 1,1 z m -0.11,0.46 3.13,1.53 m 0,-3.98 -3.13,1.52 m -1.78,0.93 -3.13,1.53 m 0,-3.98 3.13,1.52 m 4.91,-1.52 v 3.98 m -8.05,0 v -3.98"
         inkscape:label="Kugelhahn" />
    </symbol>
    <symbol
       id="symbol15">
      <path
         id="Vierweg-Absperr-Organ"
         style="opacity:1;fill:none;stroke:#000000;stroke-width:0.3;stroke-linecap:round;stroke-linejoin:round;stroke-miterlimit:10;stroke-dasharray:none;stroke-opacity:1"
         d="m 8.74,52.82 3.98,8.05 m -3.98,0 3.98,-8.05 m -3.98,0 h 3.98 m 0,8.05 H 8.74 m 6.01,-6.01 -8.05,3.98 m 0,-3.98 8.05,3.98 m 0,-3.98 v 3.98 m -8.05,0 v -3.98"
         inkscape:label="Vierweg-Absperr-Organ"
         inkscape:export-filename="Vierweg-Absperr-Organ.svg"
         inkscape:export-xdpi="96"
         inkscape:export-ydpi="96" />
    </symbol>
    <symbol
       id="symbol16">
      <path
         id="Dreiweg-Absperr-Organ"
         style="opacity:1;fill:none;stroke:#000000;stroke-width:0.3;stroke-linecap:round;stroke-linejoin:round;stroke-miterlimit:10;stroke-dasharray:none;stroke-opacity:1"
         d="m 8.74,36.81 3.98,8.05 m -3.98,0 3.98,-8.05 m -3.98,0 h 3.98 m 0,8.05 H 8.74 m 6.01,-6.01 -4.07,2.03 m 0,0 4.07,1.95 m 0,-3.98 v 3.98"
         inkscape:label="Dreiweg-Absperr-Organ" />
    </symbol>
    <symbol
       id="symbol17">
      <path
         id="Eck-Absperr-Organ"
         style="opacity:1;fill:none;stroke:#000000;stroke-width:0.3;stroke-linecap:round;stroke-linejoin:round;stroke-miterlimit:10;stroke-dasharray:none;stroke-opacity:1"
         d="m 10.69,24.86 2.03,3.98 m -3.98,0 1.95,-3.98 m 2.03,3.98 H 8.74 m 6.01,-6.01 -4.07,2.03 m 0,0 4.07,1.95 m 0,-3.98 v 3.98"
         inkscape:label="Eck-Absperr-Organ" />
    </symbol>
    <symbol
       id="symbol18">
      <path
         id="Absperr-Organ"
         style="opacity:1;fill:none;stroke:#000000;stroke-width:0.3;stroke-linecap:round;stroke-linejoin:round;stroke-miterlimit:10;stroke-dasharray:none;stroke-opacity:1"
         d="M 14.76,6.82 6.71,10.8 m 0,-3.98 8.05,3.98 m 0,-3.98 v 3.98 m -8.05,0 V 6.82"
         inkscape:label="Absperr-Organ" />
    </symbol>
    <symbol
       id="symbol19">
      <path
         id="Flanschverbindung"
         style="opacity:1;fill:none;stroke:#000000;stroke-width:0.3;stroke-linecap:round;stroke-linejoin:round;stroke-miterlimit:10;stroke-dasharray:none;stroke-opacity:1"
         d="m 177.64,266.98 v -4.07 m -0.85,4.07 v -4.07"
         inkscape:label="Flanschverbindung" />
    </symbol>
    <symbol
       id="symbol20">
      <path
         id="Verschraubung"
         style="opacity:1;fill:none;stroke:#000000;stroke-width:0.3;stroke-linecap:round;stroke-linejoin:round;stroke-miterlimit:10;stroke-dasharray:none;stroke-opacity:1"
         d="m 177.64,249.95 v -2.03 m -1.61,2.03 v -2.03 m 0.76,3.05 v -4.07"
         inkscape:label="Verschraubung" />
    </symbol>
    <symbol
       id="symbol21">
      <path
         id="W__rmemessung"
         style="opacity:1;fill:#000000;fill-opacity:1;fill-rule:evenodd;stroke:#000000;stroke-width:0.3;stroke-linecap:round;stroke-linejoin:round;stroke-miterlimit:0.2;stroke-dasharray:none;stroke-opacity:1"
         d="m 172.95,231.02 c -0.05,0.53 -0.01,1.07 -0.02,1.61 0.01,0.68 -0.02,1.37 0.01,2.05 0.16,0.11 0.37,-0.14 0.54,-0.19 2.17,-1.12 4.36,-2.21 6.53,-3.35 0.12,-0.24 -0.3,-0.12 -0.43,-0.15 -2.19,0 -4.38,0 -6.56,0 l -0.03,0.01 z m -0.14,3.93 7.96,-4.07 m -7.96,0 v 4.07 m 7.96,-4.07 h -7.96 m 0,4.07 7.96,-4.07 m 0,4.07 h -7.96 m 7.96,-4.07 v 4.07 m -7.96,-4.07 h 7.96 m -7.96,4.07 v -4.07"
         inkscape:label="Wärmemessung" />
    </symbol>
    <symbol
       id="symbol22">
      <path
         id="Verdichter"
         style="opacity:1;fill:none;fill-rule:evenodd;stroke:#000000;stroke-width:0.3;stroke-linecap:square;stroke-miterlimit:0.2;stroke-dasharray:none;paint-order:markers stroke fill"
         d="m 180.32,216.88 a 4.05,4.05 0 0 1 -4.05,4.05 4.05,4.05 0 0 1 -4.05,-4.05 4.05,4.05 0 0 1 4.05,-4.05 4.05,4.05 0 0 1 4.05,4.05 z m -0.19,-0.98 -6.69,-1.78 m 6.69,3.81 -6.69,1.78"
         inkscape:label="Verdichter" />
    </symbol>
    <symbol
       id="symbol23">
      <path
         id="Ventilator"
         style="opacity:1;fill:none;fill-rule:evenodd;stroke:#000000;stroke-width:0.3;stroke-linecap:square;stroke-miterlimit:0.2;stroke-dasharray:none;paint-order:markers stroke fill"
         d="m 180.78,200.9 a 4.05,4.05 0 0 1 -4.05,4.05 4.05,4.05 0 0 1 -4.05,-4.05 4.05,4.05 0 0 1 4.05,-4.05 4.05,4.05 0 0 1 4.05,4.05 z m -6.01,-3.47 v 6.95 m 6.01,-3.47 -6.01,-3.47 m 6.01,3.47 -6.01,3.47"
         inkscape:label="Ventilator" />
    </symbol>
    <symbol
       id="Pumpe">
      <path
         id="path1003"
         style="opacity:1;fill:none;fill-rule:evenodd;stroke:#000000;stroke-width:0.3;stroke-linecap:square;stroke-miterlimit:0.2;paint-order:markers stroke fill"
         d="m 181.57772,185.32002 c 0,2.15226 -1.74454,3.89701 -3.89655,3.89701 -2.15201,0 -3.89655,-1.74475 -3.89655,-3.89701 0,-2.15226 1.74455,-3.897 3.89655,-3.897 2.152,0 3.89655,1.74474 3.89655,3.897 z"
         sodipodi:nodetypes="sssss" />
      <path
         id="path1004"
         style="opacity:1;fill:#000000;fill-opacity:1;fill-rule:evenodd;stroke:#000000;stroke-width:0.3;stroke-linecap:round;stroke-linejoin:round;stroke-miterlimit:0.2;paint-order:markers fill stroke"
         inkscape:transform-center-x="-4.3147124e-05"
         inkscape:transform-center-y="-2.1627372"
         d="m 177.68117,181.88605 3.32205,3.43831 h -6.64411 z"
         sodipodi:nodetypes="cccc" />
    </symbol>
    <symbol
       id="symbol24">
      <path
         id="Schlauchverbindung"
         style="opacity:1;fill:none;stroke:#000000;stroke-width:0.3;stroke-linecap:round;stroke-linejoin:round;stroke-miterlimit:10;stroke-dasharray:none;stroke-opacity:1"
         d="m 182.39,167.86 h -0.59 m 0.59,2.03 h -0.59 m 0.59,-2.03 v 2.03 m 0,-1.02 h -1.95 l -0.51,1.95 -1.02,-3.89 -1.1,3.89 -1.02,-3.89 -1.02,3.89 -1.01,-3.89 -1.1,3.89 -0.51,-1.95 h -1.95 m 0,1.02 h 0.59 m -0.59,-2.03 h 0.59 m -0.59,2.03 v -2.03"
         sodipodi:nodetypes="ccccccccccccccccccccccc"
         inkscape:label="Schlauchverbindung" />
    </symbol>
    <symbol
       id="symbol25">
      <path
         id="Schwingungsd__mpfer"
         style="opacity:1;fill:none;stroke:#000000;stroke-width:0.3;stroke-linecap:round;stroke-linejoin:round;stroke-miterlimit:10;stroke-dasharray:none;stroke-opacity:1"
         d="m 178.83,155.58 0.59,-0.42 m -1.61,0.76 1.02,-0.34 m -2.03,0.51 1.02,-0.17 m -2.03,0 1.02,0.17 m -2.03,-0.51 1.01,0.34 m -1.52,-0.76 0.51,0.42 m 0,-5.34 -0.51,0.42 m 1.52,-0.85 -1.01,0.42 m 2.03,-0.59 -1.02,0.17 m 2.03,0 -1.02,-0.17 m 2.03,0.59 -1.02,-0.42 m 1.61,0.85 -0.59,-0.42 m 0.59,2.63 h 1.95 m -2.46,1.95 0.51,-1.95 m -0.51,1.95 -1.1,-3.9 m -1.02,3.9 1.02,-3.9 m -1.02,3.9 -1.02,-3.9 m -1.01,3.9 1.01,-3.9 m -1.52,1.95 0.51,1.95 m -2.54,-1.95 h 2.03"
         inkscape:label="Schwingungsdämpfer" />
    </symbol>
    <symbol
       id="symbol26">
      <path
         id="Manometer"
         style="opacity:1;fill:none;stroke:#000000;stroke-width:0.3;stroke-linecap:round;stroke-linejoin:round;stroke-miterlimit:10;stroke-dasharray:none;stroke-opacity:1"
         d="m 180.78,137.71 v 2.03 m -0.76,-1.02 0.76,-1.01 m -1.52,0 0.76,1.01 m -0.76,1.02 v -2.03 m 0.34,-3.64 -0.51,1.1 m 0.51,-1.1 -1.1,0.59 m 0.59,0.51 -0.59,-0.51 m -3.13,3.64 3.39,-3.39 m 0,2.63 0.08,-0.68 m -0.42,1.19 0.34,-0.51 m -0.76,0.93 0.42,-0.42 m -1.02,0.76 0.59,-0.34 m -1.19,0.42 0.59,-0.09 m -1.19,0 0.59,0.09 m -1.19,-0.42 0.59,0.34 m -1.02,-0.76 0.42,0.42 m -0.68,-0.93 0.25,0.51 m -0.42,-1.19 0.17,0.68 m 0,-1.27 -0.17,0.59 m 0.42,-1.19 -0.25,0.59 m 0.68,-1.01 -0.42,0.42 m 1.02,-0.68 -0.59,0.25 m 1.19,-0.34 -0.59,0.09 m 1.19,0 -0.59,-0.09 m 1.19,0.34 -0.59,-0.25 m 1.02,0.68 -0.42,-0.42 m 0.76,1.01 -0.34,-0.59 m 0.42,1.19 -0.08,-0.59"
         inkscape:label="Manometer" />
    </symbol>
    <symbol
       id="symbol27">
      <path
         id="Thermometer"
         style="opacity:1;fill:none;stroke:#000000;stroke-width:0.3;stroke-linecap:round;stroke-linejoin:round;stroke-miterlimit:10;stroke-dasharray:none;stroke-opacity:1"
         d="m 180.78,121.69 h 0.08 m -1.61,0 h 1.52 m -0.76,0 h 0.08 m -0.08,2.03 v -2.03 m -0.42,-3.64 -0.51,1.1 m 0.51,-1.1 -1.1,0.59 m 0.59,0.51 -0.59,-0.51 m -3.13,3.64 3.39,-3.39 m 0,2.62 0.08,-0.68 m -0.42,1.19 0.34,-0.51 m -0.76,0.93 0.42,-0.42 m -1.02,0.76 0.59,-0.34 m -1.19,0.42 0.59,-0.08 m -1.19,0 0.59,0.08 m -1.19,-0.42 0.59,0.34 m -1.02,-0.76 0.42,0.42 m -0.68,-0.93 0.25,0.51 m -0.42,-1.19 0.17,0.68 m 0,-1.27 -0.17,0.59 m 0.42,-1.19 -0.25,0.59 m 0.68,-1.02 -0.42,0.42 m 1.02,-0.68 -0.59,0.26 m 1.19,-0.34 -0.59,0.08 m 1.19,0 -0.59,-0.08 m 1.19,0.34 -0.59,-0.26 m 1.02,0.68 -0.42,-0.42 m 0.76,1.02 -0.34,-0.59 m 0.42,1.19 -0.08,-0.59"
         inkscape:label="Thermometer" />
    </symbol>
    <symbol
       id="symbol28">
      <path
         id="Entleerhahn"
         style="opacity:1;fill:none;stroke:#000000;stroke-width:0.3;stroke-linecap:round;stroke-linejoin:round;stroke-miterlimit:10;stroke-dasharray:none;stroke-opacity:1"
         d="m 178.83,104.84 h 1.95 m -6.61,0 h 0.59 m -1.19,1.02 h 0.59 m -0.59,-1.95 h 0.59 m -0.59,1.95 v -1.95 m 5.25,0 -4.07,1.95 m 0,-1.95 4.07,1.95 m 0,-1.95 v 1.95 m -4.07,0 v -1.95"
         inkscape:label="Entleerhahn" />
    </symbol>
    <symbol
       id="symbol29">
      <path
         id="Magnetantrieb"
         style="opacity:1;fill:none;stroke:#000000;stroke-width:0.3;stroke-linecap:round;stroke-linejoin:round;stroke-miterlimit:10;stroke-dasharray:none;stroke-opacity:1"
         d="m 174.76,88.06 4.07,-2.37 m -2.03,7.2 v -4.07 m -2.03,0 v -3.98 m 4.07,3.98 h -4.07 m 4.07,-3.98 v 3.98 m -4.07,-3.98 h 4.07"
         inkscape:label="Magnetantrieb" />
    </symbol>
    <symbol
       id="symbol30">
      <path
         id="Motorantrieb"
         style="color:#000000;fill:#000000;fill-rule:evenodd;stroke-width:0.3;stroke-linecap:square;stroke-linejoin:round;stroke-miterlimit:0.2;stroke-dasharray:none"
         d="m 174.61,68.68 v 0.15 0.15 3.68 0.15 0.15 h 0.15 0.15 1.73 v 3.92 0.15 h 0.3 v -0.15 -3.92 h 1.73 0.15 0.15 v -0.3 -3.68 -0.15 -0.15 h -0.15 -0.15 -1.93 -1.83 -0.15 z m 0.3,0.3 h 1.1 c -0.52,0.21 -0.87,0.54 -1.1,1.04 z m 1.83,0 c 1.03,0 1.86,0.82 1.86,1.83 0,1.01 -0.83,1.83 -1.86,1.83 -1,0 -1.78,-0.78 -1.83,-1.75 v -0.16 c 0.05,-0.97 0.83,-1.75 1.83,-1.75 z m 0.73,0 h 1.2 v 1.29 c -0.19,-0.62 -0.6,-1.05 -1.2,-1.29 z m 1.2,2.38 v 1.31 h -1.24 c 0.63,-0.23 1.05,-0.67 1.24,-1.31 z m -3.77,0.25 c 0.23,0.52 0.6,0.86 1.14,1.06 h -1.14 z m 2.64,0.16 c 0.01,0.01 0.01,0.02 0.01,0.02 0,0.01 -0.01,0.02 -0.03,0.02 -0.01,0 -0.03,0 -0.04,0 -0.05,0 -0.09,-0.01 -0.1,-0.01 -0.03,0 -0.05,0 -0.07,0 -0.02,0 -0.04,0 -0.06,0.01 -0.02,0 -0.02,-0.01 -0.02,-0.02 0,-0.01 0,-0.01 0.01,-0.02 0.02,-0.02 0.03,-0.04 0.04,-0.05 0.02,-0.02 0.03,-0.04 0.02,-0.05 l -0.17,-1.59 -0.36,0.51 c 0.04,0.05 0.08,0.12 0.1,0.18 0.03,0.08 0.05,0.15 0.05,0.22 0,0.09 -0.02,0.17 -0.06,0.24 -0.04,0.07 -0.1,0.11 -0.16,0.11 -0.06,0 -0.12,-0.04 -0.16,-0.11 -0.04,-0.07 -0.06,-0.14 -0.06,-0.23 0,-0.06 0.01,-0.13 0.04,-0.2 0.02,-0.05 0.05,-0.1 0.08,-0.14 -0.09,-0.12 -0.16,-0.23 -0.21,-0.32 -0.05,-0.09 -0.08,-0.16 -0.1,-0.2 l -0.16,1.52 c 0,0.02 0.01,0.04 0.03,0.05 0.02,0.02 0.03,0.03 0.05,0.05 0.01,0.01 0.01,0.01 0.01,0.02 0,0.01 -0.01,0.02 -0.02,0.02 -0.01,0 -0.03,0 -0.06,0 -0.03,0 -0.06,-0.01 -0.07,-0.01 -0.03,0 -0.06,0 -0.08,0 -0.02,0 -0.04,0 -0.07,0.01 -0.02,0 -0.02,-0.01 -0.02,-0.02 0,-0.01 0.01,-0.02 0.01,-0.03 0.01,-0.01 0.03,-0.03 0.04,-0.04 0.02,-0.02 0.03,-0.04 0.03,-0.05 l 0.19,-1.69 c 0,-0.02 -0.01,-0.04 -0.03,-0.06 -0.02,-0.02 -0.03,-0.03 -0.05,-0.05 -0.01,-0.01 -0.01,-0.01 -0.01,-0.02 0,-0.01 0.01,-0.02 0.02,-0.02 0.01,0 0.02,0 0.06,0 0.03,0 0.06,0 0.09,0 0.03,0 0.06,0 0.07,0 0.02,0 0.04,0 0.07,-0.01 0.02,0 0.03,0.01 0.03,0.02 0,0.01 0,0.01 -0.01,0.02 -0.02,0.02 -0.03,0.03 -0.04,0.04 -0.02,0.02 -0.03,0.04 -0.03,0.06 0,0 0,0.01 0,0.01 0.01,0.04 0.05,0.1 0.11,0.2 0.05,0.07 0.11,0.15 0.17,0.23 0.06,0.07 0.09,0.11 0.09,0.11 l 0.37,-0.51 c 0.01,-0.02 0.02,-0.03 0.02,-0.04 0,-0.01 0,-0.02 -0.01,-0.03 0,-0.01 -0.01,-0.01 -0.02,-0.02 -0.01,-0.01 -0.02,-0.02 -0.03,-0.03 -0.01,-0.01 -0.01,-0.01 -0.01,-0.02 0,-0.01 0.01,-0.01 0.02,-0.01 0.01,0 0.03,0 0.04,0 0.05,0 0.09,0.01 0.1,0.01 0.02,0 0.05,0 0.08,0 0.03,0 0.05,0 0.05,0 0.02,0 0.03,0.01 0.03,0.02 0,0.01 0,0.01 -0.01,0.02 -0.02,0.01 -0.03,0.02 -0.04,0.03 -0.03,0.03 -0.04,0.05 -0.04,0.07 l 0.18,1.69 c 0,0.02 0.01,0.03 0.03,0.05 0.02,0.02 0.03,0.03 0.05,0.04 z m -0.74,-0.75 c 0,-0.05 -0.02,-0.1 -0.05,-0.16 -0.02,-0.04 -0.05,-0.08 -0.09,-0.11 -0.03,0.03 -0.05,0.07 -0.07,0.1 -0.02,0.05 -0.03,0.1 -0.03,0.15 0,0.06 0.01,0.11 0.03,0.16 0.02,0.05 0.06,0.08 0.1,0.08 0.04,0 0.07,-0.02 0.09,-0.07 0.02,-0.04 0.03,-0.09 0.03,-0.14 z"
         sodipodi:nodetypes="cccccccccccccccccccccccccccccccsssccscccccccccccccsscsccscsccccscscssccccccsccsccsccccccsscsccsccscccccscccsscsssscccccccccccscsccc"
         inkscape:label="Motorantrieb" />
    </symbol>
    <symbol
       id="symbol31">
      <path
         id="STA_STADVentil"
         style="opacity:1;fill-rule:evenodd;stroke:#000000;stroke-width:0.3;stroke-linecap:round;stroke-linejoin:round;stroke-miterlimit:0.2;stroke-dasharray:none"
         d="m 177.81,56.8 a 1.01,1.02 0 0 1 -1.01,1.02 1.01,1.02 0 0 1 -1.01,-1.02 1.01,1.02 0 0 1 1.01,-1.02 1.01,1.02 0 0 1 1.01,1.02 z m -0.34,-3.05 1.69,1.01 m -0.85,-0.51 -1.01,1.69 m 0.42,1.36 3.05,1.53 m 0,-3.98 -3.05,1.52 m -1.78,0.93 -3.14,1.53 m 0,-3.98 3.14,1.52 m 4.83,-1.52 v 3.98 m -7.96,0 v -3.98"
         inkscape:label="STA/STADVentil" />
    </symbol>
    <symbol
       id="symbol32">
      <path
         id="Filter_Schmutzf__nger"
         style="opacity:1;fill:none;stroke:#000000;stroke-width:0.3;stroke-linecap:round;stroke-linejoin:round;stroke-miterlimit:10;stroke-dasharray:none;stroke-opacity:1"
         d="m 176.8,38.84 v 2.03 m 3.98,1.95 h -7.96 m 7.96,-3.98 v 3.98 m -7.96,-3.98 h 7.96 m -7.96,3.98 v -3.98"
         inkscape:label="Filter(Schmutzfänger)" />
    </symbol>
    <symbol
       id="symbol33">
      <path
         id="Automatischer-Entl__fter"
         style="opacity:1;fill:none;stroke:#000000;stroke-width:0.3;stroke-linecap:round;stroke-linejoin:round;stroke-miterlimit:10;stroke-dasharray:none;stroke-opacity:1"
         d="m 179.25,20.8 -1.44,1.44 m 1.44,0 -1.44,-1.44 m -1.02,4.07 v 1.95 m 1.02,-1.95 h -2.03 m 2.03,-4.07 v 4.07 m -2.03,-4.07 h 2.03 m -2.03,4.07 V 20.8"
         inkscape:label="Automatischer-Entlüfter" />
    </symbol>
    <symbol
       id="symbol34">
      <path
         id="Hand-Entl__fter"
         style="opacity:1;fill:none;stroke:#000000;stroke-width:0.3;stroke-linecap:round;stroke-linejoin:round;stroke-miterlimit:10;stroke-dasharray:none"
         d="m 178.24,5.38 -2.88,2.88 m 2.88,0 -2.88,-2.88 m 1.44,5.42 V 6.82"
         inkscape:label="Hand-Entlüfter" />
    </symbol>
    <symbol
       id="Tacosetter">
      <path
         id="path4870"
         style="fill:none;fill-opacity:1;fill-rule:evenodd;stroke:#000000;stroke-width:0.3;stroke-linecap:round;stroke-linejoin:round;stroke-miterlimit:0.2;stroke-dasharray:none;stroke-opacity:1"
         inkscape:label="Tacosetter"
         d="m 297.83313,200.64162 c 0,0.56404 -0.45719,1.02128 -1.02116,1.02128 -0.56397,0 -1.02116,-0.45724 -1.02116,-1.02128 0,-0.56404 0.45719,-1.02128 1.02116,-1.02128 0.56397,0 1.02116,0.45724 1.02116,1.02128 z m -2.8428,0 c 0,0.56404 -0.45719,1.02128 -1.02116,1.02128 -0.56397,0 -1.02116,-0.45724 -1.02116,-1.02128 0,-0.56404 0.45719,-1.02128 1.02116,-1.02128 0.56397,0 1.02116,0.45724 1.02116,1.02128 z m -2.20991,-5.5e-4 -2.46561,-0.84886 m 2.46561,0.84886 -2.46561,0.76605 m 0,0 v -1.61491 m 3.99544,-3.23195 h 1.44498 m -1.44498,2.80756 v -2.80756 m 4.93117,0 h -1.4471 m 1.4471,2.80756 v -2.80756 m -3.48619,0.50929 2.03909,-0.93368 m 0,0.93368 h -2.03909 m 2.03909,-0.93368 v 0.93368 m -2.03909,-0.93368 h 2.03909 m -2.03909,0.93368 v -0.93368 m 1.95633,4.93172 3.0597,1.53 m 0,-3.99589 -3.0597,1.53005 m 3.0597,2.46584 v -3.99589 m -4.93117,2.46589 -3.05967,1.53 m 0,-3.99589 3.05967,1.53005 m -3.05967,2.46584 v -3.99589" />
      <path
         style="fill:#000000;fill-opacity:1;fill-rule:evenodd;stroke:none;stroke-width:0;stroke-linecap:square;stroke-linejoin:round;stroke-miterlimit:0.2;stroke-dasharray:none;stroke-opacity:1"
         d="m 290.3148,199.79221 2.46563,0.84886 -2.46563,0.76605 v -1.61491"
         id="path11" />
    </symbol>
    <symbol
       id="symbol36">
      <path
         id="Trichter_Ablauf"
         style="opacity:1;fill:none;stroke:#000000;stroke-width:0.3;stroke-linecap:round;stroke-linejoin:round;stroke-miterlimit:10;stroke-dasharray:none;stroke-opacity:1"
         d="m 296.32,180.25 v 8.08 m 0,-8.08 -2.81,-2.81 m 2.81,2.81 2.81,-2.81"
         inkscape:label="Trichter/Ablauf" />
    </symbol>
    <symbol
       id="symbol37">
      <path
         id="Drosselventil"
         style="opacity:1;fill:none;fill-rule:evenodd;stroke:#000000;stroke-width:0.3;stroke-linecap:round;stroke-linejoin:round;stroke-miterlimit:0.2;stroke-dasharray:none"
         d="m 294.49,168.26 c 0,0.54 -0.44,0.98 -0.98,0.98 -0.54,0 -0.98,-0.44 -0.98,-0.98 0,-0.54 0.44,-0.98 0.98,-0.98 0.54,0 0.98,0.44 0.98,0.98 z m -2.17,0 -2.47,-0.85 m 0,1.61 2.47,-0.77 m 0,0 -2.47,-0.85 m 2.47,0.85 -2.47,0.77 m 10.46,-2.81 -7.99,4 m 0,-4 7.99,4 m 0,-4 v 4 m -7.99,0 v -4"
         inkscape:label="Drosselventil"
         sodipodi:nodetypes="ssssscccccccccccccccc" />
    </symbol>
    <symbol
       id="symbol38">
      <path
         id="Signallampe"
         style="opacity:1;fill:none;fill-rule:evenodd;stroke:#000000;stroke-width:0.3;stroke-linecap:round;stroke-linejoin:round;stroke-miterlimit:0.2;stroke-dasharray:none"
         d="m 298.37,152.19 a 2.1,2.1 0 0 1 -2.1,2.1 2.1,2.1 0 0 1 -2.1,-2.1 2.1,2.1 0 0 1 2.1,-2.1 2.1,2.1 0 0 1 2.1,2.1 z m -0.61,1.45 -2.89,-2.89 m -0.04,2.89 2.89,-2.89"
         inkscape:label="Signallampe" />
    </symbol>
    <symbol
       id="symbol39">
      <path
         id="Schaltuhr"
         style="opacity:1;fill:none;fill-rule:evenodd;stroke:#000000;stroke-width:0.3;stroke-linecap:round;stroke-linejoin:round;stroke-miterlimit:0.2;stroke-dasharray:none"
         d="m 298.38,136.12 a 2.06,2.06 0 0 1 -2.06,2.06 2.06,2.06 0 0 1 -2.06,-2.06 2.06,2.06 0 0 1 2.06,-2.06 2.06,2.06 0 0 1 2.06,2.06 z m 1.94,2.98 h -7.99 m 7.99,-6.04 v 6.04 m -7.99,-6.04 h 7.99 m -7.99,6.04 v -6.04 m 4,3.06 v -2.04 m 0,2.04 h 2.04"
         inkscape:label="Schaltuhr" />
    </symbol>
    <symbol
       id="symbol40">
      <path
         id="Regler"
         style="opacity:1;fill:none;stroke:#000000;stroke-width:0.3;stroke-linecap:round;stroke-linejoin:round;stroke-miterlimit:10;stroke-dasharray:none;stroke-opacity:1"
         d="m 292.32,116.99 2.97,3.06 m -2.97,2.97 2.97,-2.97 m 5.02,2.97 h -7.99 m 7.99,-6.04 v 6.04 m -7.99,-6.04 h 7.99 m -7.99,6.04 v -6.04"
         inkscape:label="Regler" />
    </symbol>
    <symbol
       id="symbol41">
      <path
         id="Druckmessf__hler"
         style="opacity:1;fill:none;stroke:#000000;stroke-width:0.3;stroke-linecap:round;stroke-linejoin:round;stroke-miterlimit:10;stroke-dasharray:none;stroke-opacity:1"
         d="m 298.02,101.95 -1.7,-1.7 m 0,0 -1.7,1.7 m 0,0 h 3.4 m -3.4,0 h 3.4 m -1.7,0 v 4.08 m 0,-5.78 -1.7,1.7 m 3.4,0 -1.7,-1.7"
         inkscape:label="Druckmessfühler" />
    </symbol>
    <symbol
       id="symbol42">
      <path
         id="Durchflussmessf__hler"
         style="opacity:1;fill:none;stroke:#000000;stroke-width:0.3;stroke-linecap:round;stroke-linejoin:round;stroke-miterlimit:10;stroke-dasharray:none;stroke-opacity:1"
         d="m 296.32,85.88 v 4.08 m 0,-7.48 -1.7,1.7 m 3.4,0 -1.7,-1.7 m 0,3.4 1.7,-1.7 m -3.4,0 1.7,1.7"
         inkscape:label="Durchflussmessfühler" />
    </symbol>
    <symbol
       id="symbol43">
      <path
         id="Tauch-Thermostat"
         style="opacity:1;fill:none;stroke:#000000;stroke-width:0.3;stroke-linecap:round;stroke-linejoin:round;stroke-miterlimit:10;stroke-dasharray:none;stroke-opacity:1"
         d="m 296.32,69.81 v 4.08 m 1.19,-6.46 h -2.38 m 2.38,2.38 v -2.38 m -2.38,2.38 h 2.38 m -2.38,-2.38 v 2.38"
         inkscape:label="Tauch-Thermostat" />
    </symbol>
    <symbol
       id="symbol44">
      <path
         id="Anlege-Thermostat"
         style="opacity:1;fill:none;stroke:#000000;stroke-width:0.3;stroke-linecap:round;stroke-linejoin:round;stroke-miterlimit:10;stroke-dasharray:none;stroke-opacity:1"
         d="m 297.51,54.59 h -2.38 m 2.38,2.38 v -2.38 m -2.38,2.38 h 2.38 m -2.38,-2.38 v 2.38"
         inkscape:label="Anlege-Thermostat" />
    </symbol>
    <symbol
       id="symbol45">
      <path
         id="Tauch-Temperaturf__hler"
         style="opacity:1;fill:none;fill-rule:evenodd;stroke:#000000;stroke-width:0.3;stroke-linecap:round;stroke-linejoin:round;stroke-miterlimit:0.2"
         d="m 297.48,36.83 a 1.16,1.16 0 0 1 -1.16,1.16 1.16,1.16 0 0 1 -1.16,-1.16 1.16,1.16 0 0 1 1.16,-1.16 1.16,1.16 0 0 1 1.16,1.16 z m -1.16,1.16 v 4.07"
         inkscape:label="Tauch-Temperaturfühler" />
    </symbol>
    <symbol
       id="symbol46">
      <ellipse
         style="opacity:1;fill:none;fill-opacity:1;fill-rule:evenodd;stroke:#000000;stroke-width:0.3;stroke-linecap:round;stroke-linejoin:round;stroke-miterlimit:0.2;stroke-dasharray:none;paint-order:normal"
         id="Anlege-Temperaturf__hler"
         cx="296.31543"
         cy="24.697615"
         rx="1.1619999"
         ry="1.1616488"
         inkscape:label="Anlege-Temperaturfühler" />
    </symbol>
    <symbol
       id="symbol47">
      <path
         id="ellipse1006"
         style="opacity:1;fill:none;fill-rule:evenodd;stroke:#000000;stroke-width:0.3;stroke-linecap:round;stroke-linejoin:round;stroke-miterlimit:0.2;stroke-dasharray:none"
         d="m 297.15,8.01 a 1.16,1.16 0 0 1 -1.16,1.16 1.16,1.16 0 0 1 -1.16,-1.16 1.16,1.16 0 0 1 1.16,-1.16 1.16,1.16 0 0 1 1.16,1.16 z m -4.39,0 h 0.08 m 0.68,0 h -0.76 m 1.52,-1.02 h 0.08 m -1.61,0 h 1.52 m -1.52,2.03 V 6.99 m -1.95,1.27 h 0.08 m 1.44,0 h -1.52 m 1.52,0.76 h 0.08 m -0.08,-0.76 v 0.76 m -0.76,-2.03 0.76,1.27 m -1.52,0 0.76,-1.27 M 290.8,9.02 V 8.26"
         inkscape:label="Anlege-Temperaturfühler" />
    </symbol>
  </defs>
  <g
     inkscape:label="Ebene 1"
     inkscape:groupmode="layer"
     id="layer1">
    <use
       xlink:href="#symbol1"
       id="use1" />
    <use
       xlink:href="#symbol2"
       id="use2" />
    <use
       xlink:href="#symbol3"
       id="use3" />
    <use
       xlink:href="#symbol4"
       id="use4" />
    <use
       xlink:href="#symbol5"
       id="use5" />
    <use
       xlink:href="#symbol6"
       id="use6" />
    <use
       xlink:href="#symbol7"
       id="use7" />
    <use
       xlink:href="#symbol8"
       id="use8" />
    <use
       xlink:href="#symbol9"
       id="use9" />
    <use
       xlink:href="#symbol10"
       id="use10" />
    <use
       xlink:href="#symbol11"
       id="use11" />
    <use
       xlink:href="#symbol12"
       id="use12" />
    <use
       xlink:href="#symbol13"
       id="use13" />
    <use
       xlink:href="#symbol14"
       id="use14" />
    <use
       xlink:href="#symbol15"
       id="use15" />
    <use
       xlink:href="#symbol16"
       id="use16" />
    <use
       xlink:href="#symbol17"
       id="use17" />
    <use
       xlink:href="#symbol18"
       id="use18" />
    <use
       xlink:href="#symbol19"
       id="use19" />
    <use
       xlink:href="#symbol20"
       id="use20" />
    <use
       xlink:href="#symbol21"
       id="use21" />
    <use
       xlink:href="#symbol22"
       id="use22" />
    <use
       xlink:href="#symbol23"
       id="use23" />
    <use
       xlink:href="#Pumpe"
       id="use24" />
    <use
       xlink:href="#symbol24"
       id="use25" />
    <use
       xlink:href="#symbol25"
       id="use26" />
    <use
       xlink:href="#symbol26"
       id="use27" />
    <use
       xlink:href="#symbol27"
       id="use28" />
    <use
       xlink:href="#symbol28"
       id="use29" />
    <use
       xlink:href="#symbol29"
       id="use30" />
    <use
       xlink:href="#symbol30"
       id="use31" />
    <use
       xlink:href="#symbol31"
       id="use32" />
    <use
       xlink:href="#symbol32"
       id="use33" />
    <use
       xlink:href="#symbol33"
       id="use34" />
    <use
       xlink:href="#symbol34"
       id="use35" />
    <use
       xlink:href="#Tacosetter"
       id="use36" />
    <use
       xlink:href="#symbol36"
       id="use37" />
    <use
       xlink:href="#symbol37"
       id="use38" />
    <use
       xlink:href="#symbol38"
       id="use39" />
    <use
       xlink:href="#symbol39"
       id="use40" />
    <use
       xlink:href="#symbol40"
       id="use41" />
    <use
       xlink:href="#symbol41"
       id="use42" />
    <use
       xlink:href="#symbol42"
       id="use43" />
    <use
       xlink:href="#symbol43"
       id="use44" />
    <use
       xlink:href="#symbol44"
       id="use45" />
    <use
       xlink:href="#symbol45"
       id="use46" />
    <use
       xlink:href="#symbol46"
       id="use47" />
    <use
       xlink:href="#symbol47"
       id="use48" />
  </g>
</svg>
